# xmcd
#
# Track frame offsets:
#	150
#	14840
#	29060
#	44072
#	57780
#	71897
#	86357
#	99315
#	113567
#	128450
#	142242
#	155792
#	169897
#	184295
#	199502
#	213762
#	227587
#	242895
#	257287
#	270645
#	283257
#	297187
#	310947
#	324252
#	337815
#
# Disc length: 4706 seconds
#
# Revision: 0
# Processed by: cddbd v1.5PL3 Copyright (c) Steve Scherf et al.
# Submitted via: dBpowerAMP V4.0
#
DISCID=73126019
DTITLE=Blind Willie Johnson - The Soul of a Man
DYEAR=1900
DGENRE=
TTITLE0=The Soul of a Man
TTITLE1=If I Had My Way I'd Tear the Building Down
TTITLE2=Dark Was the Night (Cold Was the Ground)
TTITLE3=Lord I Just Can't Keep From Crying
TTITLE4=Church, I'm Fully Saved Today
TTITLE5=Jesus Make up My Dying Bed
TTITLE6=Bye and Bye I'm Goin to See the King
TTITLE7=Let Your Light Shine on Me
TTITLE8=John the Revelator
TTITLE9=I Know his Blood Can Make Me Whole
TTITLE10=God Moves on the Water
TTITLE11=Trouble Will Soon Be Over
TTITLE12=Praise God I'm Satisfied
TTITLE13=Mother's Children Have a Hard Time
TTITLE14=It's Nodody's Fault But Mine
TTITLE15=Keep Your Lamp Trimmed and Burning
TTITLE16=I'm Gonna Run to the City of Refuge
TTITLE17=Jesus Is Coming Soon
TTITLE18=God Don't Never Change
TTITLE19=Sweeter as the Years Roll By
TTITLE20=You'll Need Somebody on Your Bond
TTITLE21=When the War Was On
TTITLE22=Take Your Burden to the Lord and Leave it There
TTITLE23=Take Your Stand
TTITLE24=Can't Nobody Hide from God
EXTD=
EXTT0=
EXTT1=
EXTT2=
EXTT3=
EXTT4=
EXTT5=
EXTT6=
EXTT7=
EXTT8=
EXTT9=
EXTT10=
EXTT11=
EXTT12=
EXTT13=
EXTT14=
EXTT15=
EXTT16=
EXTT17=
EXTT18=
EXTT19=
EXTT20=
EXTT21=
EXTT22=
EXTT23=
EXTT24=
PLAYORDER=
